<svg width="628" height="77" viewBox="0 0 628 77" fill="none" xmlns="http://www.w3.org/2000/svg">
<g id="Logo Container">
<path id="Vector" d="M628.001 62.3462C628.001 71.4618 622.198 76.0196 610.592 76.0196H596.777V68.6895H610.592C614.962 68.6895 617.898 67.9142 619.402 66.3636C620.248 65.5179 620.671 64.1787 620.671 62.3462V61.289H610.592C598.939 61.289 593.112 55.0631 593.112 42.6114C593.112 30.1127 598.939 23.8633 610.592 23.8633C622.198 23.8633 628.001 30.1127 628.001 42.6114V62.3462ZM620.671 53.9589V42.6114C620.671 38.8054 620.036 36.0566 618.768 34.3651C617.217 32.2506 614.492 31.1934 610.592 31.1934C606.692 31.1934 603.943 32.2506 602.345 34.3651C601.077 36.0566 600.442 38.8054 600.442 42.6114C600.442 46.3704 601.077 49.1192 602.345 50.8577C603.943 52.9252 606.692 53.9589 610.592 53.9589H620.671Z" fill="#7AAD1A"/>
<path id="Vector_2" d="M587.744 61.289H580.414V42.6114C580.414 38.8054 579.78 36.0566 578.511 34.3651C576.96 32.2506 574.235 31.1934 570.335 31.1934C566.435 31.1934 563.686 32.2506 562.089 34.3651C560.82 36.0566 560.186 38.8054 560.186 42.6114V61.289H552.856V42.6114C552.856 30.1127 558.682 23.8633 570.335 23.8633C581.941 23.8633 587.744 30.1127 587.744 42.6114V61.289Z" fill="#7AAD1A"/>
<path id="Vector_3" d="M547.177 16.5331H539.847V9.203H547.177V16.5331ZM539.847 23.8631H547.177V61.2888H539.847V23.8631Z" fill="#7AAD1A"/>
<path id="Vector_4" d="M535.608 31.1934C531.05 31.1934 527.902 31.8277 526.163 33.0964C524.894 34.0362 524.26 35.4928 524.26 37.4663V61.289H516.93V37.4663C516.93 28.3976 523.156 23.8633 535.608 23.8633V31.1934Z" fill="#7AAD1A"/>
<path id="Vector_5" d="M511.007 42.6114C511.007 55.0631 505.18 61.289 493.527 61.289C481.922 61.289 476.119 55.0631 476.119 42.6114V23.8633H483.449V42.6114C483.449 46.4174 484.083 49.1662 485.352 50.8577C486.902 52.9252 489.627 53.9589 493.527 53.9589C497.427 53.9589 500.153 52.9252 501.703 50.8577C502.972 49.1662 503.606 46.4174 503.606 42.6114V23.8633H511.007V42.6114Z" fill="#7AAD1A"/>
<path id="Vector_6" d="M471.526 61.3593C459.074 61.3593 452.848 56.825 452.848 47.7563V9.203H460.178V23.9336H471.526V31.2637H460.178V47.7563C460.178 49.7298 460.813 51.1864 462.081 52.1262C463.82 53.3949 466.968 54.0292 471.526 54.0292V61.3593Z" fill="#7AAD1A"/>
<path id="Vector_7" d="M449.094 49.871C447.074 57.483 441.553 61.289 432.531 61.289C420.925 61.289 415.122 55.0396 415.122 42.5409C415.122 30.0892 420.925 23.8633 432.531 23.8633C441.553 23.8633 447.074 27.6693 449.094 35.2813H441.341C439.931 32.5561 436.995 31.1934 432.531 31.1934C428.631 31.1934 425.906 32.2271 424.355 34.2946C423.086 35.9861 422.452 38.7349 422.452 42.5409C422.452 46.3469 423.086 49.0957 424.355 50.7872C425.906 52.9017 428.631 53.9589 432.531 53.9589C436.948 53.9589 439.885 52.5963 441.341 49.871H449.094Z" fill="#7AAD1A"/>
<path id="Vector_8" d="M409.981 50.0824C409.981 57.5535 404.93 61.289 394.828 61.289C389.048 61.289 384.89 59.9498 382.352 57.2715C380.614 55.392 379.745 52.9957 379.745 50.0824C379.745 47.1692 380.614 44.7728 382.352 42.8933C384.89 40.215 389.048 38.8759 394.828 38.8759C398.258 38.8759 400.537 38.406 401.664 37.4663C402.322 36.9494 402.651 36.1506 402.651 35.0699C402.651 33.9422 402.322 33.1199 401.664 32.603C400.537 31.6633 398.258 31.1934 394.828 31.1934C391.444 31.1934 389.189 31.6633 388.061 32.603C387.404 33.1199 387.075 33.9422 387.075 35.0699H379.745C379.745 32.1567 380.614 29.7603 382.352 27.8808C384.89 25.2025 389.048 23.8633 394.828 23.8633C404.93 23.8633 409.981 27.5989 409.981 35.0699V50.0824ZM402.651 50.0824V45.1487C400.49 45.9005 397.882 46.2764 394.828 46.2764C391.444 46.2764 389.189 46.7228 388.061 47.6156C387.404 48.1324 387.075 48.9547 387.075 50.0824C387.075 51.2101 387.404 52.0324 388.061 52.5493C389.189 53.489 391.444 53.9589 394.828 53.9589C398.258 53.9589 400.537 53.489 401.664 52.5493C402.322 52.0324 402.651 51.2101 402.651 50.0824Z" fill="#7AAD1A"/>
<path id="Vector_9" d="M375.576 31.2637H364.228V61.2888H356.828V22.8059C356.828 13.7373 363.077 9.203 375.576 9.203V16.5331C371.018 16.5331 367.87 17.1674 366.131 18.4361C364.863 19.3758 364.228 20.8324 364.228 22.8059V23.9336H375.576V31.2637Z" fill="#7AAD1A"/>
<path id="Vector_10" d="M351.116 42.6114C351.116 55.0631 345.289 61.289 333.636 61.289C322.03 61.289 316.227 55.0631 316.227 42.6114V23.8633H323.557V42.6114C323.557 46.4174 324.192 49.1662 325.46 50.8577C327.011 52.9252 329.736 53.9589 333.636 53.9589C337.536 53.9589 340.262 52.9252 341.812 50.8577C343.081 49.1662 343.715 46.4174 343.715 42.6114V23.8633H351.116V42.6114Z" fill="#7AAD1A"/>
<path id="Vector_11" d="M310.223 61.289H302.893V42.6114C302.893 38.8054 302.259 36.0566 300.99 34.3651C299.439 32.2506 296.714 31.1934 292.814 31.1934C288.914 31.1934 286.165 32.2506 284.568 34.3651C283.299 36.0566 282.665 38.8054 282.665 42.6114V61.289H275.335V42.6114C275.335 30.1127 281.161 23.8633 292.814 23.8633C304.42 23.8633 310.223 30.1127 310.223 42.6114V61.289Z" fill="#7AAD1A"/>
<path id="Vector_12" d="M269.912 50.0824C269.912 57.5535 264.86 61.289 254.758 61.289C248.979 61.289 244.82 59.9498 242.283 57.2715C240.544 55.392 239.675 52.9957 239.675 50.0824C239.675 47.1692 240.544 44.7728 242.283 42.8933C244.82 40.215 248.979 38.8759 254.758 38.8759C258.188 38.8759 260.467 38.406 261.595 37.4663C262.253 36.9494 262.582 36.1506 262.582 35.0699C262.582 33.9422 262.253 33.1199 261.595 32.603C260.467 31.6633 258.188 31.1934 254.758 31.1934C251.375 31.1934 249.12 31.6633 247.992 32.603C247.334 33.1199 247.005 33.9422 247.005 35.0699H239.675C239.675 32.1567 240.544 29.7603 242.283 27.8808C244.82 25.2025 248.979 23.8633 254.758 23.8633C264.86 23.8633 269.912 27.5989 269.912 35.0699V50.0824ZM262.582 50.0824V45.1487C260.42 45.9005 257.812 46.2764 254.758 46.2764C251.375 46.2764 249.12 46.7228 247.992 47.6156C247.334 48.1324 247.005 48.9547 247.005 50.0824C247.005 51.2101 247.334 52.0324 247.992 52.5493C249.12 53.489 251.375 53.9589 254.758 53.9589C258.188 53.9589 260.467 53.489 261.595 52.5493C262.253 52.0324 262.582 51.2101 262.582 50.0824Z" fill="#7AAD1A"/>
<path id="Vector_13" d="M234.196 61.289H226.866V42.6114C226.866 38.8054 226.231 36.0566 224.963 34.3651C223.365 32.2506 220.616 31.1934 216.716 31.1934C212.816 31.1934 210.091 32.2506 208.54 34.3651C207.272 36.0566 206.637 38.8054 206.637 42.6114V61.289H199.307V42.6114C199.307 38.8054 198.673 36.0566 197.404 34.3651C195.807 32.2506 193.058 31.1934 189.158 31.1934C185.258 31.1934 182.533 32.2506 180.982 34.3651C179.713 36.0566 179.079 38.8054 179.079 42.6114V61.289H171.749V42.6114C171.749 30.1127 177.552 23.8633 189.158 23.8633C195.36 23.8633 199.965 25.7663 202.972 29.5723C205.933 25.7663 210.514 23.8633 216.716 23.8633C228.369 23.8633 234.196 30.1127 234.196 42.6114V61.289Z" fill="#7AAD1A"/>
<path id="Vector_14" d="M147.017 51.6983C145.411 53.8392 142.591 54.9087 138.553 54.9087C134.516 54.9087 131.693 53.8392 130.088 51.6983C128.776 49.9483 128.121 47.101 128.121 43.1601C128.121 39.2187 128.776 36.3715 130.088 34.6183C131.693 32.429 134.516 31.3349 138.555 31.3349C142.591 31.3349 145.411 32.429 147.017 34.6183C148.331 36.3715 148.988 39.2187 148.988 43.1601C148.988 47.101 148.331 49.9483 147.017 51.6983ZM138.553 23.76C126.489 23.76 120.458 30.2265 120.458 43.1601C120.458 56.0422 126.489 62.4846 138.553 62.4846C150.566 62.4846 156.576 56.0422 156.576 43.1601C156.576 30.2265 150.566 23.76 138.553 23.76Z" fill="#5F677F"/>
<path id="Vector_15" fill-rule="evenodd" clip-rule="evenodd" d="M72.9926 21.147L100.823 62.6479L147.414 8.43881L142.221 0L101.9 46.8318L79.3583 14.5448L72.9926 21.147Z" fill="#7AC142"/>
<path id="Vector_16" d="M160.684 26.3284H161.024C161.463 26.3284 161.754 26.1335 161.754 25.8655C161.754 25.5507 161.487 25.3804 161.073 25.3804C160.927 25.3804 160.781 25.4046 160.684 25.4046V26.3284ZM160.635 28.5435H159.443V24.6741C159.709 24.6258 160.344 24.528 161.147 24.528C162.021 24.528 162.412 24.6494 162.704 24.8433C162.947 25.0146 163.117 25.3063 163.117 25.6952C163.117 26.0851 162.752 26.4272 162.217 26.5707V26.6201C162.655 26.742 162.898 27.0594 163.02 27.6175C163.142 28.1772 163.215 28.3969 163.288 28.5435H161.949C161.827 28.3969 161.754 28.0569 161.681 27.7163C161.609 27.3259 161.414 27.1325 161.024 27.1325H160.635V28.5435ZM161.122 23.4076C159.418 23.4076 158.129 24.796 158.129 26.5707C158.129 28.2991 159.418 29.7112 161.171 29.7112C162.922 29.7359 164.213 28.2991 164.213 26.5471C164.213 24.796 162.922 23.4076 161.147 23.4076H161.122ZM161.194 22.3602C163.579 22.3602 165.478 24.2358 165.478 26.5471C165.478 28.884 163.579 30.7565 161.171 30.7565C158.761 30.7565 156.839 28.884 156.839 26.5471C156.839 24.2358 158.761 22.3602 161.171 22.3602H161.194Z" fill="#5F677F"/>
<path id="Vector_17" d="M27.0717 51.621C25.4173 53.8145 22.0614 54.9065 18.0233 54.9065C13.9857 54.9065 11.1647 53.8145 9.55974 51.621C8.24594 49.871 7.58904 47.0516 7.58904 43.1574V31.3327H18.0233C22.0614 31.3327 25.4173 32.4268 27.0717 34.6162C28.3855 36.3693 29.0424 39.216 29.0424 43.1574C29.0424 47.0516 28.3855 49.871 27.0717 51.621ZM52.9867 23.7578C43.7738 23.7578 38.0482 28.5485 35.3975 34.6109C32.979 27.3761 27.0464 23.7578 18.0233 23.7578H7.58904V10.5946H0V43.137C0 56.0343 6.00828 62.4819 18.0233 62.4819C25.3411 62.4819 30.6226 60.1071 33.6491 55.3674V62.4819H41.2381V43.1165C41.2381 39.3916 42.1026 37.1392 43.82 35.0776C45.9957 32.4673 48.7147 31.3327 52.9867 31.3327H54.3005L61.8753 23.7578H52.9867Z" fill="#5F677F"/>
<path id="Vector_18" d="M80.5431 50.8908C80.5431 52.0606 80.2026 52.913 79.5231 53.4495C78.3528 54.4244 75.9963 54.9089 72.4449 54.9089C68.9407 54.9089 66.6053 54.4244 65.4391 53.4495C64.7575 52.913 64.4165 52.1878 64.4165 51.0174C64.4165 49.8439 64.6482 49.1776 65.1827 48.4949C67.9354 44.9792 72.7596 46.8453 80.5431 45.3229V50.8908ZM88.1322 35.3422C88.1322 27.6207 82.8996 23.7603 72.4449 23.7603H65.5689L57.9946 31.3351H72.4449C75.9963 31.3351 78.3528 31.8228 79.5231 32.7913C80.2026 33.3284 80.5431 34.1771 80.5431 35.3433C80.5431 36.4616 80.2026 37.2914 79.5231 37.8237C78.3528 38.797 75.9963 39.2836 72.4449 39.2836C66.4613 39.2836 62.1525 40.6678 59.527 43.441C57.7287 45.3886 56.8274 47.8669 56.8274 50.8824C56.8274 53.8999 57.7287 56.3819 59.527 58.3258C62.1525 61.099 66.4613 62.4848 72.4449 62.4848C82.8996 62.4848 88.1322 58.6175 88.1322 50.8824L88.1175 35.3422H88.1322Z" fill="#5F677F"/>
</g>
</svg>
