<svg width="378" height="46" viewBox="0 0 378 46" fill="none" xmlns="http://www.w3.org/2000/svg">
<g id="Logo Container">
<path id="Vector" d="M378.001 37.5269C378.001 43.0136 374.508 45.757 367.522 45.757H359.207V41.345H367.522C370.152 41.345 371.92 40.8783 372.825 39.945C373.334 39.4359 373.589 38.6299 373.589 37.5269V36.8905H367.522C360.508 36.8905 357.001 33.1431 357.001 25.6483C357.001 18.1251 360.508 14.3636 367.522 14.3636C374.508 14.3636 378.001 18.1251 378.001 25.6483V37.5269ZM373.589 32.4784V25.6483C373.589 23.3574 373.207 21.7029 372.443 20.6847C371.51 19.412 369.869 18.7756 367.522 18.7756C365.175 18.7756 363.52 19.412 362.558 20.6847C361.795 21.7029 361.413 23.3574 361.413 25.6483C361.413 27.9108 361.795 29.5654 362.558 30.6118C363.52 31.8562 365.175 32.4784 367.522 32.4784H373.589Z" fill="white"/>
<path id="Vector_2" d="M353.77 36.8905H349.358V25.6483C349.358 23.3574 348.976 21.7029 348.212 20.6847C347.279 19.412 345.638 18.7756 343.291 18.7756C340.944 18.7756 339.289 19.412 338.328 20.6847C337.564 21.7029 337.182 23.3574 337.182 25.6483V36.8905H332.77V25.6483C332.77 18.1251 336.277 14.3636 343.291 14.3636C350.277 14.3636 353.77 18.1251 353.77 25.6483V36.8905Z" fill="white"/>
<path id="Vector_3" d="M329.352 9.95142H324.94V5.53937H329.352V9.95142ZM324.94 14.3635H329.352V36.8904H324.94V14.3635Z" fill="white"/>
<path id="Vector_4" d="M322.388 18.7756C319.645 18.7756 317.75 19.1574 316.703 19.9211C315.94 20.4867 315.558 21.3635 315.558 22.5513V36.8905H311.146V22.5513C311.146 17.0928 314.893 14.3636 322.388 14.3636V18.7756Z" fill="white"/>
<path id="Vector_5" d="M307.581 25.6483C307.581 33.1431 304.074 36.8905 297.06 36.8905C290.074 36.8905 286.581 33.1431 286.581 25.6483V14.3636H290.993V25.6483C290.993 27.9391 291.375 29.5936 292.139 30.6118C293.072 31.8562 294.712 32.4784 297.06 32.4784C299.407 32.4784 301.047 31.8562 301.981 30.6118C302.744 29.5936 303.126 27.9391 303.126 25.6483V14.3636H307.581V25.6483Z" fill="white"/>
<path id="Vector_6" d="M283.816 36.9328C276.322 36.9328 272.574 34.2036 272.574 28.7451V5.53937H276.986V14.4059H283.816V18.8179H276.986V28.7451C276.986 29.9329 277.368 30.8097 278.132 31.3753C279.178 32.1389 281.073 32.5208 283.816 32.5208V36.9328Z" fill="white"/>
<path id="Vector_7" d="M270.315 30.0179C269.099 34.5996 265.776 36.8905 260.345 36.8905C253.36 36.8905 249.867 33.1289 249.867 25.6058C249.867 18.111 253.36 14.3636 260.345 14.3636C265.776 14.3636 269.099 16.6545 270.315 21.2362H265.648C264.8 19.5958 263.032 18.7756 260.345 18.7756C257.998 18.7756 256.358 19.3979 255.424 20.6423C254.661 21.6604 254.279 23.315 254.279 25.6058C254.279 27.8967 254.661 29.5512 255.424 30.5694C256.358 31.8421 257.998 32.4784 260.345 32.4784C263.004 32.4784 264.772 31.6583 265.648 30.0179H270.315Z" fill="white"/>
<path id="Vector_8" d="M246.772 30.1452C246.772 34.6421 243.732 36.8905 237.651 36.8905C234.173 36.8905 231.67 36.0844 230.142 34.4724C229.096 33.3411 228.573 31.8987 228.573 30.1452C228.573 28.3916 229.096 26.9492 230.142 25.8179C231.67 24.2059 234.173 23.3998 237.651 23.3998C239.716 23.3998 241.088 23.117 241.766 22.5513C242.162 22.2402 242.36 21.7594 242.36 21.1089C242.36 20.4302 242.162 19.9352 241.766 19.6241C241.088 19.0585 239.716 18.7756 237.651 18.7756C235.615 18.7756 234.258 19.0585 233.579 19.6241C233.183 19.9352 232.985 20.4302 232.985 21.1089H228.573C228.573 19.3554 229.096 17.913 230.142 16.7817C231.67 15.1696 234.173 14.3636 237.651 14.3636C243.732 14.3636 246.772 16.612 246.772 21.1089V30.1452ZM242.36 30.1452V27.1755C241.059 27.628 239.49 27.8543 237.651 27.8543C235.615 27.8543 234.258 28.123 233.579 28.6603C233.183 28.9714 232.985 29.4664 232.985 30.1452C232.985 30.8239 233.183 31.3189 233.579 31.63C234.258 32.1956 235.615 32.4784 237.651 32.4784C239.716 32.4784 241.088 32.1956 241.766 31.63C242.162 31.3189 242.36 30.8239 242.36 30.1452Z" fill="white"/>
<path id="Vector_9" d="M226.063 18.8179H219.233V36.8904H214.779V13.7271C214.779 8.26862 218.54 5.53937 226.063 5.53937V9.95142C223.32 9.95142 221.425 10.3332 220.379 11.0969C219.615 11.6625 219.233 12.5393 219.233 13.7271V14.4059H226.063V18.8179Z" fill="white"/>
<path id="Vector_10" d="M211.34 25.6483C211.34 33.1431 207.833 36.8905 200.819 36.8905C193.834 36.8905 190.341 33.1431 190.341 25.6483V14.3636H194.753V25.6483C194.753 27.9391 195.135 29.5936 195.898 30.6118C196.832 31.8562 198.472 32.4784 200.819 32.4784C203.167 32.4784 204.807 31.8562 205.741 30.6118C206.504 29.5936 206.886 27.9391 206.886 25.6483V14.3636H211.34V25.6483Z" fill="white"/>
<path id="Vector_11" d="M186.727 36.8905H182.315V25.6483C182.315 23.3574 181.933 21.7029 181.169 20.6847C180.236 19.412 178.596 18.7756 176.248 18.7756C173.901 18.7756 172.246 19.412 171.285 20.6847C170.521 21.7029 170.139 23.3574 170.139 25.6483V36.8905H165.727V25.6483C165.727 18.1251 169.234 14.3636 176.248 14.3636C183.234 14.3636 186.727 18.1251 186.727 25.6483V36.8905Z" fill="white"/>
<path id="Vector_12" d="M162.463 30.1452C162.463 34.6421 159.423 36.8905 153.342 36.8905C149.863 36.8905 147.36 36.0844 145.833 34.4724C144.786 33.3411 144.263 31.8987 144.263 30.1452C144.263 28.3916 144.786 26.9492 145.833 25.8179C147.36 24.2059 149.863 23.3998 153.342 23.3998C155.406 23.3998 156.778 23.117 157.457 22.5513C157.853 22.2402 158.051 21.7594 158.051 21.1089C158.051 20.4302 157.853 19.9352 157.457 19.6241C156.778 19.0585 155.406 18.7756 153.342 18.7756C151.305 18.7756 149.948 19.0585 149.269 19.6241C148.873 19.9352 148.675 20.4302 148.675 21.1089H144.263C144.263 19.3554 144.786 17.913 145.833 16.7817C147.36 15.1696 149.863 14.3636 153.342 14.3636C159.423 14.3636 162.463 16.612 162.463 21.1089V30.1452ZM158.051 30.1452V27.1755C156.75 27.628 155.18 27.8543 153.342 27.8543C151.305 27.8543 149.948 28.123 149.269 28.6603C148.873 28.9714 148.675 29.4664 148.675 30.1452C148.675 30.8239 148.873 31.3189 149.269 31.63C149.948 32.1956 151.305 32.4784 153.342 32.4784C155.406 32.4784 156.778 32.1956 157.457 31.63C157.853 31.3189 158.051 30.8239 158.051 30.1452Z" fill="white"/>
<path id="Vector_13" d="M140.965 36.8905H136.553V25.6483C136.553 23.3574 136.171 21.7029 135.407 20.6847C134.446 19.412 132.791 18.7756 130.444 18.7756C128.096 18.7756 126.456 19.412 125.523 20.6847C124.759 21.7029 124.377 23.3574 124.377 25.6483V36.8905H119.965V25.6483C119.965 23.3574 119.583 21.7029 118.82 20.6847C117.858 19.412 116.203 18.7756 113.856 18.7756C111.509 18.7756 109.868 19.412 108.935 20.6847C108.171 21.7029 107.789 23.3574 107.789 25.6483V36.8905H103.377V25.6483C103.377 18.1251 106.87 14.3636 113.856 14.3636C117.589 14.3636 120.361 15.509 122.171 17.7999C123.953 15.509 126.71 14.3636 130.444 14.3636C137.458 14.3636 140.965 18.1251 140.965 25.6483V36.8905Z" fill="white"/>
<path id="Vector_14" d="M88.4909 31.1177C87.5245 32.4064 85.8269 33.0501 83.3966 33.0501C80.9664 33.0501 79.2674 32.4064 78.3011 31.1177C77.5115 30.0644 77.1174 28.3506 77.1174 25.9785C77.1174 23.6062 77.5115 21.8924 78.3011 20.8371C79.2674 19.5194 80.9664 18.8608 83.3976 18.8608C85.8269 18.8608 87.5245 19.5194 88.4909 20.8371C89.2817 21.8924 89.6771 23.6062 89.6771 25.9785C89.6771 28.3506 89.2817 30.0644 88.4909 31.1177ZM83.3966 14.3014C76.1349 14.3014 72.5049 18.1937 72.5049 25.9785C72.5049 33.7324 76.1349 37.6101 83.3966 37.6101C90.6273 37.6101 94.2447 33.7324 94.2447 25.9785C94.2447 18.1937 90.6273 14.3014 83.3966 14.3014Z" fill="white"/>
<path id="Vector_15" fill-rule="evenodd" clip-rule="evenodd" d="M43.9351 12.7286L60.6862 37.7084L88.7303 5.07942L85.6044 0L61.3347 28.1886L47.7666 8.7547L43.9351 12.7286Z" fill="#7AC142"/>
<path id="Vector_16" d="M96.7175 15.8474H96.9225C97.1863 15.8474 97.3618 15.73 97.3618 15.5687C97.3618 15.3792 97.2011 15.2767 96.9516 15.2767C96.8639 15.2767 96.7763 15.2913 96.7175 15.2913V15.8474ZM96.6884 17.1806H95.9707V14.8516C96.131 14.8225 96.5131 14.7637 96.9962 14.7637C97.5225 14.7637 97.7579 14.8367 97.9334 14.9535C98.0799 15.0566 98.1823 15.2321 98.1823 15.4662C98.1823 15.7009 97.9625 15.9068 97.6405 15.9932V16.0229C97.9043 16.0963 98.0501 16.2874 98.1235 16.6233C98.1972 16.9602 98.2409 17.0924 98.2848 17.1806H97.4792C97.4058 17.0924 97.3618 16.8877 97.3179 16.6828C97.2742 16.4477 97.1569 16.3313 96.9225 16.3313H96.6884V17.1806ZM96.9813 14.0893C95.9558 14.0893 95.1799 14.925 95.1799 15.9932C95.1799 17.0336 95.9558 17.8835 97.011 17.8835C98.065 17.8984 98.8416 17.0336 98.8416 15.979C98.8416 14.925 98.065 14.0893 96.9962 14.0893H96.9813ZM97.0246 13.4589C98.4604 13.4589 99.6032 14.5878 99.6032 15.979C99.6032 17.3856 98.4604 18.5127 97.011 18.5127C95.5604 18.5127 94.4033 17.3856 94.4033 15.979C94.4033 14.5878 95.5604 13.4589 97.011 13.4589H97.0246Z" fill="white"/>
<path id="Vector_17" d="M16.2947 31.0712C15.299 32.3915 13.279 33.0489 10.8484 33.0489C8.41814 33.0489 6.72015 32.3915 5.75412 31.0712C4.96333 30.0179 4.56793 28.3209 4.56793 25.977V18.8595H10.8484C13.279 18.8595 15.299 19.5181 16.2947 20.8359C17.0855 21.8911 17.4809 23.6046 17.4809 25.977C17.4809 28.3209 17.0855 30.0179 16.2947 31.0712ZM31.8933 14.3001C26.3479 14.3001 22.9016 17.1837 21.3061 20.8327C19.8505 16.478 16.2796 14.3001 10.8484 14.3001H4.56793V6.37701H0V25.9646C0 33.7277 3.61645 37.6086 10.8484 37.6086C15.2531 37.6086 18.4321 36.1791 20.2538 33.3263V37.6086H24.8217V25.9523C24.8217 23.7102 25.342 22.3545 26.3758 21.1136C27.6853 19.5424 29.3219 18.8595 31.8933 18.8595H32.6841L37.2434 14.3001H31.8933Z" fill="white"/>
<path id="Vector_18" d="M48.4798 30.6317C48.4798 31.3359 48.2748 31.8489 47.8658 32.1719C47.1614 32.7587 45.743 33.0503 43.6054 33.0503C41.4962 33.0503 40.0905 32.7587 39.3886 32.1719C38.9783 31.8489 38.773 31.4124 38.773 30.708C38.773 30.0016 38.9125 29.6005 39.2342 29.1897C40.8911 27.0735 43.7949 28.1967 48.4798 27.2804V30.6317ZM53.0477 21.2729C53.0477 16.6252 49.8982 14.3016 43.6054 14.3016H39.4667L34.9076 18.861H43.6054C45.743 18.861 47.1614 19.1545 47.8658 19.7375C48.2748 20.0608 48.4798 20.5716 48.4798 21.2735C48.4798 21.9466 48.2748 22.4461 47.8658 22.7665C47.1614 23.3523 45.743 23.6453 43.6054 23.6453C40.0038 23.6453 37.4103 24.4784 35.83 26.1476C34.7476 27.3199 34.2051 28.8117 34.2051 30.6267C34.2051 32.443 34.7476 33.9369 35.83 35.107C37.4103 36.7762 40.0038 37.6103 43.6054 37.6103C49.8982 37.6103 53.0477 35.2825 53.0477 30.6267L53.0389 21.2729H53.0477Z" fill="white"/>
</g>
</svg>
